#N canvas 111 78 1018 451 10;
#N canvas 282 31 1101 621 osc 0;
#X obj 110 179 mrpeach/packOSC;
#X obj 110 219 mrpeach/udpsend;
#X obj 324 92 loadbang;
#X obj 262 91 sel 1 0;
#X msg 331 120 disconnect;
#X obj 109 124 list prepend send;
#X msg 109 151 \$1 \$2 \$3;
#X obj 236 9 tgl 27 0 empty empty adress1 41 9 0 10 -262144 -1 -1 1
1;
#X obj 516 90 loadbang;
#X obj 454 89 sel 1 0;
#X msg 523 118 disconnect;
#X obj 335 9 tgl 27 0 empty empty adress2 42 8 0 10 -262144 -1 -1 1
1;
#X obj -58 121 mrpeach/unpackOSC;
#X obj 248 55 tgl 15 0 empty empty isConnected 17 7 0 10 -204788 -1
-1 1 1;
#X msg 299 163 connect 192.168.0.20 12344;
#X msg 491 161 connect 192.168.0.21 12344;
#X obj 517 224 mrpeach/udpsend;
#X obj 368 55 tgl 15 0 empty empty isConnected 17 7 0 10 -204788 -1
-1 1 1;
#X obj 672 179 mrpeach/packOSC;
#X obj 671 124 list prepend send;
#X msg 671 151 \$1 \$2 \$3;
#X obj 671 76 r toOSC2;
#X obj 109 76 r toOSC1;
#X obj 731 78 r toOSC;
#X obj 168 75 r toOSC;
#X obj -58 88 mrpeach/udpreceive 12345;
#X obj -8 373 unpack 1 2 3 4 5 6;
#X obj -8 351 route /robot/entirePos /truc;
#X obj 794 34 mrpeach/unpackOSC;
#X obj 844 286 unpack 1 2 3 4 5 6;
#X obj 844 264 route /robot/entirePos /truc;
#X obj 794 1 mrpeach/udpreceive 12346;
#X msg -18 46 port 12345;
#X text 25 331 total bytes received:;
#X msg -50 15 status;
#X obj 97 394 s robot1motor5;
#X obj 76 413 s robot1motor4;
#X obj 55 432 s robot1motor3;
#X obj 34 451 s robot1motor2;
#X obj 12 471 s robot1motor1;
#X obj -11 492 s robot1motor0;
#X obj 949 307 s robot2motor5;
#X obj 928 326 s robot2motor4;
#X obj 907 345 s robot2motor3;
#X obj 886 364 s robot2motor2;
#X obj 864 384 s robot2motor1;
#X obj 841 405 s robot2motor0;
#X connect 0 0 1 0;
#X connect 1 0 13 0;
#X connect 2 0 14 0;
#X connect 3 0 14 0;
#X connect 3 1 4 0;
#X connect 4 0 1 0;
#X connect 5 0 6 0;
#X connect 6 0 0 0;
#X connect 7 0 3 0;
#X connect 8 0 15 0;
#X connect 9 0 15 0;
#X connect 9 1 10 0;
#X connect 10 0 16 0;
#X connect 11 0 9 0;
#X connect 12 0 27 0;
#X connect 14 0 1 0;
#X connect 15 0 16 0;
#X connect 16 0 17 0;
#X connect 18 0 16 0;
#X connect 19 0 20 0;
#X connect 20 0 18 0;
#X connect 21 0 19 0;
#X connect 22 0 5 0;
#X connect 23 0 19 0;
#X connect 24 0 5 0;
#X connect 25 0 12 0;
#X connect 26 0 40 0;
#X connect 26 1 39 0;
#X connect 26 2 38 0;
#X connect 26 3 37 0;
#X connect 26 4 36 0;
#X connect 26 5 35 0;
#X connect 27 0 26 0;
#X connect 28 0 30 0;
#X connect 29 0 46 0;
#X connect 29 1 45 0;
#X connect 29 2 44 0;
#X connect 29 3 43 0;
#X connect 29 4 42 0;
#X connect 29 5 41 0;
#X connect 30 0 29 0;
#X connect 31 0 28 0;
#X connect 32 0 25 0;
#X connect 34 0 25 0;
#X coords 0 -1 1 1 300 81 2 220 -1;
#X restore 13 9 pd osc;
#N canvas 102 83 671 311 recLoad 0;
#X obj 108 114 hradio 12 0 0 16 empty empty record 0 -8 0 10 -262144
-1 -1 6;
#X msg 3 186 /pos/record \$1;
#X obj 109 141 hradio 12 0 0 16 empty empty load 0 -8 0 10 -262144
-1 -1 6;
#X msg 108 256 /pos/load \$1;
#X obj 27 155 i 0;
#X obj 344 106 bng 23 250 50 0 empty empty empty 17 7 0 10 -259610
-1 -1;
#X obj 108 206 i 0;
#X obj 344 133 bng 23 250 50 0 empty empty empty 17 7 0 10 -40914 -1
-1;
#X obj 167 228 + 1;
#X floatatom 305 137 5 0 0 0 - - -, f 5;
#X floatatom 305 110 5 0 0 0 - - -, f 5;
#X obj 64 160 + 1;
#X obj 109 288 s toOSC1;
#X obj -1 222 s toOSC1;
#X obj 73 13 r loadPos;
#X obj 76 50 t b f;
#X connect 0 0 4 1;
#X connect 0 0 10 0;
#X connect 1 0 13 0;
#X connect 2 0 6 1;
#X connect 2 0 9 0;
#X connect 3 0 12 0;
#X connect 4 0 1 0;
#X connect 4 0 11 0;
#X connect 5 0 4 0;
#X connect 6 0 3 0;
#X connect 6 0 8 0;
#X connect 7 0 6 0;
#X connect 8 0 2 0;
#X connect 11 0 0 0;
#X connect 14 0 15 0;
#X connect 15 0 7 0;
#X connect 15 1 2 0;
#X connect 15 1 0 0;
#X coords 0 -1 1 1 277 65 2 100 100;
#X restore 336 371 pd recLoad;
#N canvas 389 375 450 300 app-settings 0;
#X obj 109 113 hsl 128 15 0.001 1 0 0 empty empty fps -2 -8 0 10 -262144
-1 -1 1000 0;
#X msg 110 217 /app/fps \$1;
#X floatatom 248 111 5 0 0 0 - - -, f 5;
#X obj 219 191 pow -1;
#X floatatom 287 111 5 0 0 0 - - -, f 5;
#X obj 111 134 bng 31 250 50 0 empty empty QUIT 41 14 0 10 -164496
-1 -1;
#X msg 12 217 /app/close 1;
#X obj 100 294 s toOSC;
#X connect 0 0 2 0;
#X connect 1 0 7 0;
#X connect 2 0 3 0;
#X connect 2 0 1 0;
#X connect 3 0 4 0;
#X connect 5 0 6 0;
#X connect 6 0 7 0;
#X coords 0 -1 1 1 300 69 2 100 100;
#X restore 13 96 pd app-settings;
#X msg 49 384 /pos/saveLib 1;
#X obj 49 313 bng 36 250 50 0 empty empty SAVE 8 -14 0 10 -16645 -89252
-1;
#N canvas 102 83 671 311 recLoad 0;
#X obj 108 114 hradio 12 0 0 16 empty empty record 0 -8 0 10 -262144
-1 -1 6;
#X msg 3 226 /pos/record \$1;
#X obj 109 138 hradio 12 0 0 16 empty empty load 0 -8 0 10 -262144
-1 -1 6;
#X msg 108 256 /pos/load \$1;
#X obj 27 155 i 0;
#X obj 344 106 bng 23 250 50 0 empty empty empty 17 7 0 10 -259610
-1 -1;
#X obj 108 206 i 0;
#X obj 344 133 bng 23 250 50 0 empty empty empty 17 7 0 10 -40914 -1
-1;
#X obj 167 228 + 1;
#X floatatom 305 137 5 0 0 0 - - -, f 5;
#X floatatom 305 111 5 0 0 0 - - -, f 5;
#X obj -1 262 s toOSC2;
#X obj 109 288 s toOSC2;
#X obj 68 32 r loadPos;
#X obj 44 62 t b f;
#X obj 40 192 + 1;
#X connect 0 0 4 1;
#X connect 0 0 10 0;
#X connect 1 0 11 0;
#X connect 2 0 6 1;
#X connect 2 0 9 0;
#X connect 3 0 12 0;
#X connect 4 0 1 0;
#X connect 4 0 15 0;
#X connect 5 0 4 0;
#X connect 6 0 3 0;
#X connect 6 0 8 0;
#X connect 7 0 6 0;
#X connect 8 0 2 0;
#X connect 13 0 14 0;
#X connect 14 0 7 0;
#X connect 14 1 2 0;
#X connect 14 1 0 0;
#X connect 15 0 0 0;
#X coords 0 -1 1 1 277 65 2 100 100;
#X restore 685 372 pd recLoad;
#X obj 365 2 motor 5 1;
#X obj 365 57 motor 4 1;
#X obj 366 112 motor 3 1;
#X obj 366 168 motor 2 1;
#X obj 366 225 motor 1 1;
#X obj 366 279 motor 0 1;
#X obj 812 5 motor 5 2;
#X obj 812 60 motor 4 2;
#X obj 813 115 motor 3 2;
#X obj 813 171 motor 2 2;
#X obj 813 228 motor 1 2;
#X obj 813 282 motor 0 2;
#N canvas 102 83 671 311 globalLoad 0;
#X obj 109 118 hradio 12 0 0 16 empty empty load 0 -8 0 10 -262144
-1 -1 6;
#X obj 108 206 i 0;
#X obj 344 113 bng 23 250 50 0 empty empty empty 17 7 0 10 -40914 -1
-1;
#X obj 167 228 + 1;
#X floatatom 116 141 5 0 0 0 - - -, f 5;
#X obj 109 288 s loadPos;
#X floatatom 308 117 5 0 0 0 Last - -, f 5;
#X connect 0 0 1 1;
#X connect 0 0 4 0;
#X connect 1 0 3 0;
#X connect 1 0 5 0;
#X connect 1 0 6 0;
#X connect 2 0 1 0;
#X connect 3 0 0 0;
#X coords 0 -1 1 1 278 63 2 100 100;
#X restore 15 175 pd globalLoad;
#X obj 168 336 bng 15 250 50 0 empty empty empty 17 7 0 10 -262144
-1 -1;
#X msg 168 387 /robot/getposition 1;
#X obj 187 264 tgl 15 0 empty empty empty 17 7 0 10 -262144 -1 -1 0
1;
#X obj 190 299 metro 1000;
#X obj 168 417 s toOSC;
#N canvas 858 54 440 531 robot 0;
#X obj 256 496 s robot1set1;
#X obj 259 437 * 1;
#X obj 324 440 * -1;
#X obj 336 498 s robot1set2;
#X obj 239 410 t f f;
#X obj 131 218 vsl 49 105 -90 90 0 0 empty empty empty 0 -9 0 10 -262144
-1 -1 6760 0;
#X obj 103 331 hsl 100 39 -90 90 0 0 empty empty empty -2 -8 0 10 -262144
-1 -1 5170 0;
#X obj 107 483 s robot1set0;
#X obj 103 175 hsl 100 39 -90 90 0 0 empty empty empty -2 -8 0 10 -262144
-1 -1 5940 0;
#X obj 233 229 s robot1set3;
#X obj 131 62 vsl 49 105 90 -90 0 0 empty empty empty 0 -9 0 10 -262144
-1 -1 2773 0;
#X obj 122 23 vsl 71 30 -90 90 0 0 empty empty empty 0 -9 0 10 -262144
-1 -1 2111 0;
#X obj 236 167 s robot1set4;
#X obj 237 119 s robot1set5;
#X obj 260 39 r robot1motor5;
#X msg 260 62 set \$1;
#X msg 332 113 set \$1;
#X obj 332 90 r robot1motor4;
#X msg 337 174 set \$1;
#X obj 337 151 r robot1motor3;
#X msg 328 252 set \$1;
#X obj 328 229 r robot1motor1;
#X msg 226 316 set \$1;
#X obj 226 293 r robot1motor0;
#X connect 1 0 0 0;
#X connect 2 0 3 0;
#X connect 4 0 1 0;
#X connect 4 1 2 0;
#X connect 5 0 4 0;
#X connect 6 0 7 0;
#X connect 8 0 9 0;
#X connect 10 0 12 0;
#X connect 11 0 13 0;
#X connect 14 0 15 0;
#X connect 15 0 11 0;
#X connect 16 0 10 0;
#X connect 17 0 16 0;
#X connect 18 0 8 0;
#X connect 19 0 18 0;
#X connect 20 0 5 0;
#X connect 21 0 20 0;
#X connect 22 0 6 0;
#X connect 23 0 22 0;
#X coords 0 -1 1 1 112 352 1 100 21;
#X restore 551 4 pd robot 1;
#N canvas 858 54 440 531 robot 0;
#X obj 259 437 * 1;
#X obj 324 440 * -1;
#X obj 239 410 t f f;
#X obj 131 218 vsl 49 105 -90 90 0 0 empty empty empty 0 -9 0 10 -262144
-1 -1 6760 0;
#X obj 103 331 hsl 100 39 -90 90 0 0 empty empty empty -2 -8 0 10 -262144
-1 -1 8470 0;
#X obj 103 175 hsl 100 39 -90 90 0 0 empty empty empty -2 -8 0 10 -262144
-1 -1 3850 0;
#X obj 131 62 vsl 49 105 90 -90 0 0 empty empty empty 0 -9 0 10 -262144
-1 -1 1676 0;
#X obj 122 23 vsl 71 30 90 -90 0 0 empty empty empty 0 -9 0 10 -262144
-1 -1 1837 0;
#X msg 260 62 set \$1;
#X msg 332 113 set \$1;
#X msg 337 174 set \$1;
#X msg 328 252 set \$1;
#X msg 226 316 set \$1;
#X obj 260 39 r robot2motor5;
#X obj 332 90 r robot2motor4;
#X obj 337 151 r robot2motor3;
#X obj 237 119 s robot2set5;
#X obj 236 167 s robot2set4;
#X obj 328 229 r robot2motor1;
#X obj 233 229 s robot2set3;
#X obj 226 293 r robot2motor0;
#X obj 256 496 s robot2set1;
#X obj 336 498 s robot2set2;
#X obj 107 483 s robot2set0;
#X connect 0 0 21 0;
#X connect 1 0 22 0;
#X connect 2 0 0 0;
#X connect 2 1 1 0;
#X connect 3 0 2 0;
#X connect 4 0 23 0;
#X connect 5 0 19 0;
#X connect 6 0 17 0;
#X connect 7 0 16 0;
#X connect 8 0 7 0;
#X connect 9 0 6 0;
#X connect 10 0 5 0;
#X connect 11 0 3 0;
#X connect 12 0 4 0;
#X connect 13 0 8 0;
#X connect 14 0 9 0;
#X connect 15 0 10 0;
#X connect 18 0 11 0;
#X connect 20 0 12 0;
#X coords 0 -1 1 1 112 352 1 100 21;
#X restore 695 4 pd robot 1;
#X connect 3 0 23 0;
#X connect 4 0 3 0;
#X connect 19 0 20 0;
#X connect 20 0 23 0;
#X connect 21 0 22 0;
#X connect 22 0 19 0;
