#N canvas 591 53 811 392 10;
#X obj 22 52 mrpeach/unpackOSC;
#X obj 22 124 s fromOSC;
#X obj 22 19 mrpeach/udpreceive 9999;
#X obj 32 94 print fromMrPeach;
#X msg 22 -4 port 9999;
#X obj 540 -11 hsl 128 15 -23 25 0 0 empty empty position\ to\ reach
-2 -8 0 10 -262144 -1 -1 10800 0;
#X obj 640 192 hradio 23 0 0 6 empty empty empty 0 -8 0 10 -262144
-1 -1 5;
#X obj 297 254 s toOSC;
#X msg 298 132 /robot/compliant \$1;
#X obj 249 109 tgl 16 0 empty empty empty 17 7 0 10 -262144 -1 -1 0
1;
#N canvas 743 73 639 327 osc 0;
#X obj 109 76 r toOSC;
#X obj 110 179 mrpeach/packOSC;
#X obj 110 219 mrpeach/udpsend;
#X obj 324 92 loadbang;
#X obj 110 252 outlet;
#X obj 262 91 sel 1 0;
#X msg 331 120 disconnect;
#X obj 109 124 list prepend send;
#X msg 109 151 \$1 \$2 \$3;
#X obj 264 61 tgl 15 0 empty empty empty 17 7 0 10 -262144 -1 -1 1
1;
#X obj 48 211 print;
#X obj 253 24 inlet;
#X msg 299 163 connect 192.168.0.11 12344;
#X obj 516 90 loadbang;
#X obj 454 89 sel 1 0;
#X msg 523 118 disconnect;
#X obj 456 59 tgl 15 0 empty empty empty 17 7 0 10 -262144 -1 -1 0
1;
#X obj 445 22 inlet;
#X msg 491 161 connect 192.168.2.6 12344;
#X connect 0 0 7 0;
#X connect 1 0 2 0;
#X connect 2 0 4 0;
#X connect 3 0 12 0;
#X connect 5 0 12 0;
#X connect 5 1 6 0;
#X connect 6 0 2 0;
#X connect 7 0 8 0;
#X connect 8 0 1 0;
#X connect 8 0 10 0;
#X connect 9 0 5 0;
#X connect 11 0 9 0;
#X connect 12 0 2 0;
#X connect 13 0 18 0;
#X connect 14 0 18 0;
#X connect 14 1 15 0;
#X connect 15 0 2 0;
#X connect 16 0 14 0;
#X connect 17 0 16 0;
#X connect 18 0 2 0;
#X restore 171 100 pd osc;
#X obj 169 51 tgl 34 0 empty empty empty 17 7 0 10 -262144 -1 -1 1
1;
#X obj 172 133 tgl 15 0 empty empty empty 17 7 0 10 -262144 -1 -1 1
1;
#N canvas 207 125 856 522 one_motor_only 0;
#X obj 443 24 inlet;
#X obj 443 97 makefilename /motor/%d;
#X obj 443 135 makefilename /led/%d;
#X obj 443 174 makefilename /compliant/%d;
#X obj 40 24 inlet;
#X obj 81 24 inlet;
#X obj 131 24 inlet;
#X obj 39 67 i 0;
#X obj 39 114 prepend /motor/1;
#X obj 82 152 prepend /led/1;
#X obj 146 191 prepend /compliant/1;
#X obj 38 362 s toOSC;
#X obj 443 55 + 0;
#X obj 226 223 prepend /speed/1;
#X obj 311 263 prepend /smooth/1;
#X obj 208 24 inlet;
#X obj 258 24 inlet;
#X obj 443 206 makefilename /speed/%d;
#X obj 443 238 makefilename /smooth/%d;
#X connect 0 0 12 0;
#X connect 1 0 8 1;
#X connect 2 0 9 1;
#X connect 3 0 10 1;
#X connect 4 0 7 0;
#X connect 5 0 9 0;
#X connect 6 0 10 0;
#X connect 7 0 8 0;
#X connect 8 0 11 0;
#X connect 9 0 11 0;
#X connect 10 0 11 0;
#X connect 12 0 1 0;
#X connect 12 0 3 0;
#X connect 12 0 2 0;
#X connect 12 0 17 0;
#X connect 12 0 18 0;
#X connect 13 0 11 0;
#X connect 14 0 11 0;
#X connect 15 0 13 0;
#X connect 16 0 14 0;
#X connect 17 0 13 1;
#X connect 18 0 14 1;
#X restore 541 222 pd one_motor_only;
#X obj 612 82 tgl 15 0 empty empty empty 17 7 0 10 -262144 -1 -1 0
1;
#X msg 578 50 red;
#X msg 605 52 blue;
#X msg 323 226 /app/close \$0;
#X obj 213 52 tgl 32 0 empty empty empty 17 7 0 10 -262144 -1 -1 0
1;
#X msg 551 50 off;
#X obj 645 103 hsl 128 15 0 250 0 0 empty empty speed -2 -8 0 10 -262144
-1 -1 10100 0;
#X obj 666 143 hsl 128 15 0 99 0 0 empty empty smooth -2 -8 0 10 -262144
-1 -1 8100 0;
#X floatatom 533 14 5 0 0 0 - - -, f 5;
#X obj 323 159 hsl 128 15 0 1 0 0 empty empty fps -2 -8 0 10 -262144
-1 -1 400 0;
#X msg 323 178 /app/fps \$1;
#X obj 270 10 hsl 128 15 0 250 0 0 empty empty speed -2 -8 0 10 -262144
-1 -1 600 0;
#X obj 301 60 hsl 128 15 0 99 0 0 empty empty smooth -2 -8 0 10 -262144
-1 -1 12700 0;
#X msg 271 31 /robot/speed \$1;
#X msg 301 83 /robot/smooth \$1;
#X floatatom 686 167 5 0 0 0 - - -, f 5;
#X msg 636 52 green;
#X obj 34 191 hradio 23 0 0 8 empty empty record 0 -8 0 10 -262144
-1 -1 1;
#X msg 34 225 /pos/record \$1;
#X obj 34 282 hradio 23 0 0 8 empty empty load 0 -8 0 10 -262144 -1
-1 0;
#X msg 34 316 /pos/load \$1;
#X obj 35 252 s toOSC;
#X obj 35 348 s toOSC;
#X msg 141 319 /pos/saveLib 1;
#X connect 0 0 1 0;
#X connect 0 0 3 0;
#X connect 2 0 0 0;
#X connect 4 0 2 0;
#X connect 5 0 22 0;
#X connect 6 0 13 5;
#X connect 8 0 7 0;
#X connect 9 0 8 0;
#X connect 10 0 12 0;
#X connect 11 0 10 0;
#X connect 14 0 13 2;
#X connect 15 0 13 1;
#X connect 16 0 13 1;
#X connect 17 0 7 0;
#X connect 18 0 10 1;
#X connect 19 0 13 1;
#X connect 20 0 13 3;
#X connect 21 0 13 4;
#X connect 21 0 29 0;
#X connect 22 0 13 0;
#X connect 23 0 24 0;
#X connect 24 0 7 0;
#X connect 25 0 27 0;
#X connect 26 0 28 0;
#X connect 27 0 7 0;
#X connect 28 0 7 0;
#X connect 30 0 13 1;
#X connect 31 0 32 0;
#X connect 32 0 35 0;
#X connect 33 0 34 0;
#X connect 34 0 36 0;
#X connect 37 0 36 0;
