#N canvas 592 116 811 240 10;
#X obj 22 52 mrpeach/unpackOSC;
#X obj 22 124 s fromOSC;
#X obj 22 19 mrpeach/udpreceive 9999;
#X obj 32 94 print fromMrPeach;
#X msg 22 -4 port 9999;
#X obj 437 15 hsl 128 15 -90 90 0 0 empty empty empty -2 -8 0 10 -262144
-1 -1 4800 0;
#X obj 537 148 hradio 23 0 0 5 empty empty empty 0 -8 0 10 -262144
-1 -1 0;
#X obj 297 174 s toOSC;
#X msg 298 82 /robot/compliant \$1;
#X obj 298 10 tgl 65 0 empty empty empty 17 7 0 10 -262144 -1 -1 1
1;
#N canvas 743 73 639 327 osc 0;
#X obj 109 76 r toOSC;
#X obj 110 179 mrpeach/packOSC;
#X obj 110 219 mrpeach/udpsend;
#X obj 324 92 loadbang;
#X obj 110 252 outlet;
#X obj 262 91 sel 1 0;
#X msg 331 120 disconnect;
#X obj 109 124 list prepend send;
#X msg 109 151 \$1 \$2 \$3;
#X obj 264 61 tgl 15 0 empty empty empty 17 7 0 10 -262144 -1 -1 0
1;
#X obj 48 211 print;
#X obj 253 24 inlet;
#X msg 299 163 connect 192.168.0.11 12344;
#X obj 516 90 loadbang;
#X obj 454 89 sel 1 0;
#X msg 523 118 disconnect;
#X obj 456 59 tgl 15 0 empty empty empty 17 7 0 10 -262144 -1 -1 1
1;
#X obj 445 22 inlet;
#X msg 491 161 connect 192.168.2.6 12344;
#X connect 0 0 7 0;
#X connect 1 0 2 0;
#X connect 2 0 4 0;
#X connect 3 0 12 0;
#X connect 5 0 12 0;
#X connect 5 1 6 0;
#X connect 6 0 2 0;
#X connect 7 0 8 0;
#X connect 8 0 1 0;
#X connect 8 0 10 0;
#X connect 9 0 5 0;
#X connect 11 0 9 0;
#X connect 12 0 2 0;
#X connect 13 0 18 0;
#X connect 14 0 18 0;
#X connect 14 1 15 0;
#X connect 15 0 2 0;
#X connect 16 0 14 0;
#X connect 17 0 16 0;
#X connect 18 0 2 0;
#X restore 171 100 pd osc;
#X obj 169 51 tgl 34 0 empty empty empty 17 7 0 10 -262144 -1 -1 0
1;
#X obj 172 133 tgl 15 0 empty empty empty 17 7 0 10 -262144 -1 -1 1
1;
#N canvas 207 125 470 425 one_motor_only 1;
#X obj 273 24 inlet;
#X obj 273 97 makefilename /motor/%d;
#X obj 273 135 makefilename /led/%d;
#X obj 273 174 makefilename /compliant/%d;
#X obj 40 24 inlet;
#X obj 81 24 inlet;
#X obj 131 24 inlet;
#X obj 39 67 i 0;
#X obj 39 114 prepend /motor/1;
#X obj 82 152 prepend /led/1;
#X obj 146 191 prepend /compliant/1;
#X obj 38 282 s toOSC;
#X obj 273 55 + 0;
#X connect 0 0 12 0;
#X connect 1 0 8 1;
#X connect 2 0 9 1;
#X connect 3 0 10 1;
#X connect 4 0 7 0;
#X connect 5 0 9 0;
#X connect 6 0 10 0;
#X connect 7 0 8 0;
#X connect 8 0 11 0;
#X connect 9 0 11 0;
#X connect 10 0 11 0;
#X connect 12 0 1 0;
#X connect 12 0 3 0;
#X connect 12 0 2 0;
#X restore 438 178 pd one_motor_only;
#X obj 502 113 tgl 15 0 empty empty empty 17 7 0 10 -262144 -1 -1 0
1;
#X msg 471 58 red;
#X msg 471 88 blue;
#X msg 310 130 /app/close \$0;
#X obj 213 52 tgl 32 0 empty empty empty 17 7 0 10 -262144 -1 -1 1
1;
#X connect 0 0 1 0;
#X connect 0 0 3 0;
#X connect 2 0 0 0;
#X connect 4 0 2 0;
#X connect 5 0 13 0;
#X connect 6 0 13 3;
#X connect 8 0 7 0;
#X connect 9 0 8 0;
#X connect 10 0 12 0;
#X connect 11 0 10 0;
#X connect 14 0 13 2;
#X connect 15 0 13 1;
#X connect 16 0 13 1;
#X connect 17 0 7 0;
#X connect 18 0 10 1;
