#N canvas 697 301 605 353 10;
#N canvas 228 177 873 433 osc 0;
#X obj 109 76 r toOSC;
#X obj 110 179 mrpeach/packOSC;
#X obj 110 219 mrpeach/udpsend;
#X obj 324 92 loadbang;
#X obj 262 91 sel 1 0;
#X msg 331 120 disconnect;
#X obj 109 124 list prepend send;
#X msg 109 151 \$1 \$2 \$3;
#X obj 236 9 tgl 27 0 empty empty adress1 41 9 0 10 -262144 -1 -1 1
1;
#X obj 48 211 print;
#X obj 516 90 loadbang;
#X obj 454 89 sel 1 0;
#X msg 523 118 disconnect;
#X obj 335 9 tgl 27 0 empty empty adress2 42 8 0 10 -262144 -1 -1 1
1;
#X obj -58 121 mrpeach/unpackOSC;
#X obj -58 193 s fromOSC;
#X obj -58 88 mrpeach/udpreceive 9999;
#X obj -48 163 print fromMrPeach;
#X msg -58 65 port 9999;
#X obj 248 55 tgl 15 0 empty empty isConnected 17 7 0 10 -204788 -1
-1 0 1;
#X msg 299 163 connect 192.168.0.20 12344;
#X msg 491 161 connect 192.168.0.21 12344;
#X obj 266 221 mrpeach/udpsend;
#X obj 368 55 tgl 15 0 empty empty isConnected 17 7 0 10 -204788 -1
-1 0 1;
#X connect 0 0 6 0;
#X connect 1 0 2 0;
#X connect 1 0 22 0;
#X connect 2 0 19 0;
#X connect 3 0 20 0;
#X connect 4 0 20 0;
#X connect 4 1 5 0;
#X connect 5 0 2 0;
#X connect 6 0 7 0;
#X connect 7 0 1 0;
#X connect 8 0 4 0;
#X connect 10 0 21 0;
#X connect 11 0 21 0;
#X connect 11 1 12 0;
#X connect 12 0 22 0;
#X connect 13 0 11 0;
#X connect 14 0 15 0;
#X connect 14 0 17 0;
#X connect 16 0 14 0;
#X connect 18 0 16 0;
#X connect 20 0 2 0;
#X connect 21 0 22 0;
#X connect 22 0 23 0;
#X coords 0 -1 1 1 300 81 2 220 -1;
#X restore 13 9 pd osc;
#X obj 366 225 motor 1;
#X obj 366 168 motor 2;
#X obj 366 112 motor 3;
#X obj 365 57 motor 4;
#X obj 365 2 motor 5;
#X obj 366 279 motor 0;
#N canvas 310 103 450 300 recLoad 0;
#X obj 108 113 hradio 23 0 0 8 empty empty record 0 -8 0 10 -262144
-1 -1 0;
#X msg -2 195 /pos/record \$1;
#X obj 109 156 hradio 23 0 0 8 empty empty load 0 -8 0 10 -262144 -1
-1 0;
#X msg 108 236 /pos/load \$1;
#X obj -1 222 s toOSC;
#X obj 109 268 s toOSC;
#X msg 215 239 /pos/saveLib 1;
#X obj 27 155 i 0;
#X obj 298 113 bng 23 250 50 0 empty empty empty 17 7 0 10 -259610
-1 -1;
#X obj 108 206 i 0;
#X obj 298 158 bng 23 250 50 0 empty empty empty 17 7 0 10 -40914 -1
-1;
#X obj 344 144 bng 36 250 50 0 empty empty SAVE 8 -14 0 10 -16645 -89252
-1;
#X connect 0 0 7 1;
#X connect 1 0 4 0;
#X connect 2 0 9 1;
#X connect 3 0 5 0;
#X connect 6 0 5 0;
#X connect 7 0 1 0;
#X connect 8 0 7 0;
#X connect 9 0 3 0;
#X connect 10 0 9 0;
#X connect 11 0 6 0;
#X coords 0 -1 1 1 300 83 2 100 100;
#X restore 13 97 pd recLoad;
#N canvas 389 375 450 300 app-settings 0;
#X obj 109 113 hsl 128 15 0.001 1 0 0 empty empty fps -2 -8 0 10 -262144
-1 -1 0 0;
#X msg 110 217 /app/fps \$1;
#X floatatom 248 111 5 0 0 0 - - -, f 5;
#X obj 219 191 pow -1;
#X floatatom 287 111 5 0 0 0 - - -, f 5;
#X obj 111 134 bng 31 250 50 0 empty empty QUIT 41 14 0 10 -164496
-1 -1;
#X msg 12 217 /app/close 1;
#X obj 100 294 s toOSC;
#X connect 0 0 2 0;
#X connect 1 0 7 0;
#X connect 2 0 3 0;
#X connect 2 0 1 0;
#X connect 3 0 4 0;
#X connect 5 0 6 0;
#X connect 6 0 7 0;
#X coords 0 -1 1 1 300 69 2 100 100;
#X restore 13 188 pd app-settings;
#X text 551 185 max 40;
#X text 546 234 min - 80;
#X text 548 254 max 27;
#X text 550 289 max 65;
