#N canvas 591 53 811 217 10;
#X obj 22 52 mrpeach/unpackOSC;
#X obj 22 124 s fromOSC;
#X obj 22 19 mrpeach/udpreceive 9999;
#X obj 32 94 print fromMrPeach;
#X msg 22 -4 port 9999;
#X obj 437 15 hsl 128 15 -23 25 0 0 empty empty position\ to\ reach
-2 -8 0 10 -262144 -1 -1 1800 0;
#X obj 537 178 hradio 23 0 0 6 empty empty empty 0 -8 0 10 -262144
-1 -1 5;
#X obj 297 204 s toOSC;
#X msg 298 82 /robot/compliant \$1;
#X obj 298 10 tgl 65 0 empty empty empty 17 7 0 10 -262144 -1 -1 1
1;
#N canvas 743 73 639 327 osc 0;
#X obj 109 76 r toOSC;
#X obj 110 179 mrpeach/packOSC;
#X obj 110 219 mrpeach/udpsend;
#X obj 324 92 loadbang;
#X obj 110 252 outlet;
#X obj 262 91 sel 1 0;
#X msg 331 120 disconnect;
#X obj 109 124 list prepend send;
#X msg 109 151 \$1 \$2 \$3;
#X obj 264 61 tgl 15 0 empty empty empty 17 7 0 10 -262144 -1 -1 0
1;
#X obj 48 211 print;
#X obj 253 24 inlet;
#X msg 299 163 connect 192.168.0.11 12344;
#X obj 516 90 loadbang;
#X obj 454 89 sel 1 0;
#X msg 523 118 disconnect;
#X obj 456 59 tgl 15 0 empty empty empty 17 7 0 10 -262144 -1 -1 1
1;
#X obj 445 22 inlet;
#X msg 491 161 connect 192.168.2.6 12344;
#X connect 0 0 7 0;
#X connect 1 0 2 0;
#X connect 2 0 4 0;
#X connect 3 0 12 0;
#X connect 5 0 12 0;
#X connect 5 1 6 0;
#X connect 6 0 2 0;
#X connect 7 0 8 0;
#X connect 8 0 1 0;
#X connect 8 0 10 0;
#X connect 9 0 5 0;
#X connect 11 0 9 0;
#X connect 12 0 2 0;
#X connect 13 0 18 0;
#X connect 14 0 18 0;
#X connect 14 1 15 0;
#X connect 15 0 2 0;
#X connect 16 0 14 0;
#X connect 17 0 16 0;
#X connect 18 0 2 0;
#X restore 171 100 pd osc;
#X obj 169 51 tgl 34 0 empty empty empty 17 7 0 10 -262144 -1 -1 0
1;
#X obj 172 133 tgl 15 0 empty empty empty 17 7 0 10 -262144 -1 -1 1
1;
#N canvas 207 125 856 522 one_motor_only 0;
#X obj 443 24 inlet;
#X obj 443 97 makefilename /motor/%d;
#X obj 443 135 makefilename /led/%d;
#X obj 443 174 makefilename /compliant/%d;
#X obj 40 24 inlet;
#X obj 81 24 inlet;
#X obj 131 24 inlet;
#X obj 39 67 i 0;
#X obj 39 114 prepend /motor/1;
#X obj 82 152 prepend /led/1;
#X obj 146 191 prepend /compliant/1;
#X obj 38 362 s toOSC;
#X obj 443 55 + 0;
#X obj 226 223 prepend /speed/1;
#X obj 311 263 prepend /smooth/1;
#X obj 208 24 inlet;
#X obj 258 24 inlet;
#X obj 443 206 makefilename /speed/%d;
#X obj 443 238 makefilename /smooth/%d;
#X connect 0 0 12 0;
#X connect 1 0 8 1;
#X connect 2 0 9 1;
#X connect 3 0 10 1;
#X connect 4 0 7 0;
#X connect 5 0 9 0;
#X connect 6 0 10 0;
#X connect 7 0 8 0;
#X connect 8 0 11 0;
#X connect 9 0 11 0;
#X connect 10 0 11 0;
#X connect 12 0 1 0;
#X connect 12 0 3 0;
#X connect 12 0 2 0;
#X connect 12 0 17 0;
#X connect 12 0 18 0;
#X connect 13 0 11 0;
#X connect 14 0 11 0;
#X connect 15 0 13 0;
#X connect 16 0 14 0;
#X connect 17 0 13 1;
#X connect 18 0 14 1;
#X restore 438 208 pd one_motor_only;
#X obj 509 68 tgl 15 0 empty empty empty 17 7 0 10 -262144 -1 -1 0
1;
#X msg 475 36 red;
#X msg 502 38 blue;
#X msg 323 176 /app/close \$0;
#X obj 213 52 tgl 32 0 empty empty empty 17 7 0 10 -262144 -1 -1 1
1;
#X msg 448 36 off;
#X obj 542 89 hsl 128 15 0 250 0 0 empty empty speed -2 -8 0 10 -262144
-1 -1 1700 0;
#X obj 563 129 hsl 128 15 0 99 0 0 empty empty smooth -2 -8 0 10 -262144
-1 -1 12700 0;
#X floatatom 580 20 5 0 0 0 - - -, f 5;
#X obj 320 105 hsl 128 15 0 1 0 0 empty empty fps -2 -8 0 10 -262144
-1 -1 1900 0;
#X msg 323 128 /app/fps \$1;
#X connect 0 0 1 0;
#X connect 0 0 3 0;
#X connect 2 0 0 0;
#X connect 4 0 2 0;
#X connect 5 0 13 0;
#X connect 5 0 22 0;
#X connect 6 0 13 5;
#X connect 8 0 7 0;
#X connect 9 0 8 0;
#X connect 10 0 12 0;
#X connect 11 0 10 0;
#X connect 14 0 13 2;
#X connect 15 0 13 1;
#X connect 16 0 13 1;
#X connect 17 0 7 0;
#X connect 18 0 10 1;
#X connect 19 0 13 1;
#X connect 20 0 13 3;
#X connect 21 0 13 4;
#X connect 23 0 24 0;
#X connect 24 0 7 0;
