#N canvas 373 22 1064 531 10;
#N canvas 282 31 1101 621 osc 0;
#X obj 110 179 mrpeach/packOSC;
#X obj 110 219 mrpeach/udpsend;
#X obj 324 92 loadbang;
#X obj 262 91 sel 1 0;
#X msg 331 120 disconnect;
#X obj 109 124 list prepend send;
#X msg 109 151 \$1 \$2 \$3;
#X obj 236 9 tgl 27 0 empty empty adress1 41 9 0 10 -262144 -1 -1 1
1;
#X obj 516 90 loadbang;
#X obj 454 89 sel 1 0;
#X msg 523 118 disconnect;
#X obj 335 9 tgl 27 0 empty empty adress2 42 8 0 10 -262144 -1 -1 1
1;
#X obj -58 121 mrpeach/unpackOSC;
#X obj 248 55 tgl 15 0 empty empty isConnected 17 7 0 10 -204788 -1
-1 1 1;
#X obj 517 224 mrpeach/udpsend;
#X obj 368 55 tgl 15 0 empty empty isConnected 17 7 0 10 -204788 -1
-1 1 1;
#X obj 672 179 mrpeach/packOSC;
#X obj 671 124 list prepend send;
#X msg 671 151 \$1 \$2 \$3;
#X obj 671 76 r toOSC2;
#X obj 109 76 r toOSC1;
#X obj 731 78 r toOSC;
#X obj 168 75 r toOSC;
#X obj -58 88 mrpeach/udpreceive 12345;
#X obj -8 373 unpack 1 2 3 4 5 6;
#X obj -8 351 route /robot/entirePos /truc;
#X obj 794 34 mrpeach/unpackOSC;
#X obj 844 286 unpack 1 2 3 4 5 6;
#X obj 844 264 route /robot/entirePos /truc;
#X obj 794 1 mrpeach/udpreceive 12346;
#X msg -18 46 port 12345;
#X text 25 331 total bytes received:;
#X msg -50 15 status;
#X obj 97 394 s robot1motor5;
#X obj 76 413 s robot1motor4;
#X obj 55 432 s robot1motor3;
#X obj 34 451 s robot1motor2;
#X obj 12 471 s robot1motor1;
#X obj -11 492 s robot1motor0;
#X obj 949 307 s robot2motor5;
#X obj 928 326 s robot2motor4;
#X obj 907 345 s robot2motor3;
#X obj 886 364 s robot2motor2;
#X obj 864 384 s robot2motor1;
#X obj 841 405 s robot2motor0;
#X msg 491 161 connect 192.168.10.101 12344;
#X msg 299 163 connect 192.168.10.100 12344;
#X obj 311 363 mrpeach/packOSC;
#X obj 311 403 mrpeach/udpsend;
#X msg 500 347 connect 192.168.10.111 12348;
#X msg 310 335 /short 1;
#X msg 404 329 /long 1;
#X connect 0 0 1 0;
#X connect 1 0 13 0;
#X connect 2 0 46 0;
#X connect 3 0 46 0;
#X connect 3 1 4 0;
#X connect 4 0 1 0;
#X connect 5 0 6 0;
#X connect 6 0 0 0;
#X connect 7 0 3 0;
#X connect 8 0 45 0;
#X connect 9 0 45 0;
#X connect 9 1 10 0;
#X connect 10 0 14 0;
#X connect 11 0 9 0;
#X connect 12 0 25 0;
#X connect 14 0 15 0;
#X connect 16 0 14 0;
#X connect 17 0 18 0;
#X connect 18 0 16 0;
#X connect 19 0 17 0;
#X connect 20 0 5 0;
#X connect 21 0 17 0;
#X connect 22 0 5 0;
#X connect 23 0 12 0;
#X connect 24 0 38 0;
#X connect 24 1 37 0;
#X connect 24 2 36 0;
#X connect 24 3 35 0;
#X connect 24 4 34 0;
#X connect 24 5 33 0;
#X connect 25 0 24 0;
#X connect 26 0 28 0;
#X connect 27 0 44 0;
#X connect 27 1 43 0;
#X connect 27 2 42 0;
#X connect 27 3 41 0;
#X connect 27 4 40 0;
#X connect 27 5 39 0;
#X connect 28 0 27 0;
#X connect 29 0 26 0;
#X connect 30 0 23 0;
#X connect 32 0 23 0;
#X connect 45 0 14 0;
#X connect 46 0 1 0;
#X connect 47 0 48 0;
#X connect 49 0 48 0;
#X connect 50 0 47 0;
#X connect 51 0 47 0;
#X coords 0 -1 1 1 300 81 2 220 -1;
#X restore 13 9 pd osc;
#N canvas 102 83 671 311 recLoad 1;
#X obj 108 114 hradio 12 0 0 16 empty empty record 0 -8 0 10 -262144
-1 -1 4;
#X msg 3 256 /pos/record \$1;
#X obj 109 141 hradio 12 0 0 16 empty empty load 0 -8 0 10 -262144
-1 -1 7;
#X msg 108 256 /pos/load \$1;
#X obj 344 103 bng 23 250 50 0 empty empty empty 17 7 0 10 -259610
-1 -1;
#X obj 344 133 bng 23 250 50 0 empty empty empty 17 7 0 10 -40914 -1
-1;
#X floatatom 306 139 5 0 0 0 - - -, f 5;
#X floatatom 305 110 5 0 0 0 - - -, f 5;
#X obj 109 288 s toOSC1;
#X obj 3 292 s toOSC1;
#X obj 4 53 t b f;
#X obj 188 198 + 1;
#X obj 188 225 i 0;
#X obj 13 131 + 1;
#X obj 13 158 i 0;
#X obj 59 314 print record;
#X obj 4 13 r loadPos1;
#X connect 0 0 7 0;
#X connect 0 0 13 0;
#X connect 1 0 9 0;
#X connect 1 0 15 0;
#X connect 2 0 6 0;
#X connect 2 0 3 0;
#X connect 2 0 11 0;
#X connect 3 0 8 0;
#X connect 4 0 14 0;
#X connect 5 0 12 0;
#X connect 10 1 2 0;
#X connect 11 0 12 1;
#X connect 12 0 2 0;
#X connect 13 0 14 1;
#X connect 14 0 1 0;
#X connect 16 0 10 0;
#X coords 0 -1 1 1 277 65 2 100 100;
#X restore 336 371 pd recLoad;
#N canvas 389 375 603 357 app-settings 0;
#X obj 109 113 hsl 128 15 0.001 1 0 0 empty empty fps -2 -8 0 10 -262144
-1 -1 0 0;
#X msg 110 217 /app/fps \$1;
#X floatatom 248 111 5 0 0 0 - - -, f 5;
#X obj 219 191 pow -1;
#X floatatom 287 111 5 0 0 0 - - -, f 5;
#X obj 111 134 bng 31 250 50 0 empty empty QUIT 41 14 0 10 -164496
-1 -1;
#X msg 12 217 /app/close 1;
#X obj 100 294 s toOSC;
#X msg 423 216 /pos/saveLib 1;
#X obj 364 149 bng 14 250 50 0 empty empty SAVE 8 -14 0 10 -16645 -89252
-1;
#X obj 241 245 bng 15 250 50 0 empty empty empty 17 7 0 10 -262144
-1 -1;
#X msg 241 266 /robot/getposition 1;
#X obj 214 146 tgl 15 0 empty empty askForPosition 17 7 0 10 -262144
-1 -1 0 1;
#X obj 241 222 metro 1000;
#X obj 404 342 s toOSC;
#X obj 324 128 bng 36 250 50 0 empty empty LOAD 8 -14 0 10 -16645 -89252
-1;
#X msg 376 254 /pos/loadLib 1;
#X connect 0 0 2 0;
#X connect 1 0 7 0;
#X connect 2 0 3 0;
#X connect 2 0 1 0;
#X connect 3 0 4 0;
#X connect 5 0 6 0;
#X connect 6 0 7 0;
#X connect 8 0 14 0;
#X connect 9 0 8 0;
#X connect 10 0 11 0;
#X connect 11 0 14 0;
#X connect 12 0 13 0;
#X connect 13 0 10 0;
#X connect 15 0 16 0;
#X connect 16 0 14 0;
#X coords 0 -1 1 1 300 69 2 100 100;
#X restore 13 96 pd app-settings;
#N canvas 102 83 671 311 recLoad 0;
#X obj 104 119 hradio 12 0 0 16 empty empty record 0 -8 0 10 -262144
-1 -1 7;
#X msg -1 261 /pos/record \$1;
#X obj 105 146 hradio 12 0 0 16 empty empty load 0 -8 0 10 -262144
-1 -1 7;
#X msg 104 261 /pos/load \$1;
#X obj 342 105 bng 23 250 50 0 empty empty empty 17 7 0 10 -259610
-1 -1;
#X obj 340 138 bng 23 250 50 0 empty empty empty 17 7 0 10 -40914 -1
-1;
#X floatatom 302 144 5 0 0 0 - - -, f 5;
#X floatatom 301 115 5 0 0 0 - - -, f 5;
#X obj 0 58 t b f;
#X obj 184 203 + 1;
#X obj 184 230 i 0;
#X obj 9 136 + 1;
#X obj 9 163 i 0;
#X obj -1 297 s toOSC2;
#X obj 105 293 s toOSC2;
#X obj 0 18 r loadPos2;
#X connect 0 0 7 0;
#X connect 0 0 11 0;
#X connect 1 0 13 0;
#X connect 2 0 6 0;
#X connect 2 0 3 0;
#X connect 2 0 9 0;
#X connect 3 0 14 0;
#X connect 4 0 12 0;
#X connect 5 0 10 0;
#X connect 8 1 2 0;
#X connect 9 0 10 1;
#X connect 10 0 2 0;
#X connect 11 0 12 1;
#X connect 12 0 0 0;
#X connect 12 0 1 0;
#X connect 15 0 8 0;
#X coords 0 -1 1 1 277 65 2 100 100;
#X restore 728 370 pd recLoad;
#X obj 365 2 motor 5 1;
#X obj 365 70 motor 4 1;
#X obj 366 139 motor 3 1;
#X obj 366 193 motor 2 1;
#X obj 366 250 motor 1 1;
#X obj 366 305 motor 0 1;
#X obj 812 5 motor 5 2;
#X obj 812 71 motor 4 2;
#X obj 813 140 motor 3 2;
#X obj 813 194 motor 2 2;
#X obj 813 251 motor 1 2;
#X obj 813 305 motor 0 2;
#N canvas 102 83 671 311 globalLoad 0;
#X obj 109 118 hradio 12 0 0 16 empty empty load 0 -8 0 10 -262144
-1 -1 7;
#X obj 344 113 bng 23 250 50 0 empty empty empty 17 7 0 10 -40914 -1
-1;
#X obj 34 143 + 1;
#X floatatom 308 117 5 0 0 0 Last - -, f 5;
#X obj 140 19 inlet;
#X obj 140 46 t b f;
#X obj 40 55 i 0;
#X obj 116 227 t f f;
#X obj 177 290 s loadPos2;
#X obj 109 288 s loadPos1;
#X connect 0 0 2 0;
#X connect 0 0 3 0;
#X connect 0 0 7 0;
#X connect 1 0 6 0;
#X connect 2 0 6 1;
#X connect 4 0 5 0;
#X connect 5 0 1 0;
#X connect 5 1 0 0;
#X connect 6 0 0 0;
#X connect 7 0 9 0;
#X connect 7 1 8 0;
#X coords 0 -1 1 1 278 63 2 100 100;
#X restore 20 277 pd globalLoad;
#N canvas 858 54 440 531 robot 0;
#X obj 256 496 s robot1set1;
#X obj 259 437 * 1;
#X obj 324 440 * -1;
#X obj 336 498 s robot1set2;
#X obj 239 410 t f f;
#X obj 131 218 vsl 49 105 -90 90 0 0 empty empty empty 0 -9 0 10 -262144
-1 -1 2022 0;
#X obj 103 331 hsl 100 39 -90 90 0 0 empty empty empty -2 -8 0 10 -262144
-1 -1 3520 0;
#X obj 107 483 s robot1set0;
#X obj 103 175 hsl 100 39 -90 90 0 0 empty empty empty -2 -8 0 10 -262144
-1 -1 5940 0;
#X obj 233 229 s robot1set3;
#X obj 131 62 vsl 49 105 90 -90 0 0 empty empty empty 0 -9 0 10 -262144
-1 -1 6933 0;
#X obj 122 23 vsl 71 30 -90 90 0 0 empty empty empty 0 -9 0 10 -262144
-1 -1 1337 0;
#X obj 236 167 s robot1set4;
#X obj 237 119 s robot1set5;
#X obj 260 39 r robot1motor5;
#X msg 260 62 set \$1;
#X msg 332 113 set \$1;
#X obj 332 90 r robot1motor4;
#X msg 337 174 set \$1;
#X obj 337 151 r robot1motor3;
#X msg 328 252 set \$1;
#X obj 328 229 r robot1motor1;
#X msg 226 316 set \$1;
#X obj 226 293 r robot1motor0;
#X connect 1 0 0 0;
#X connect 2 0 3 0;
#X connect 4 0 1 0;
#X connect 4 1 2 0;
#X connect 5 0 4 0;
#X connect 6 0 7 0;
#X connect 8 0 9 0;
#X connect 10 0 12 0;
#X connect 11 0 13 0;
#X connect 14 0 15 0;
#X connect 15 0 11 0;
#X connect 16 0 10 0;
#X connect 17 0 16 0;
#X connect 18 0 8 0;
#X connect 19 0 18 0;
#X connect 20 0 5 0;
#X connect 21 0 20 0;
#X connect 22 0 6 0;
#X connect 23 0 22 0;
#X coords 0 -1 1 1 112 352 1 100 21;
#X restore 551 4 pd robot 1;
#N canvas 858 54 440 531 robot 0;
#X obj 259 437 * 1;
#X obj 324 440 * -1;
#X obj 239 410 t f f;
#X obj 131 218 vsl 49 105 -90 90 0 0 empty empty empty 0 -9 0 10 -262144
-1 -1 578 0;
#X obj 103 331 hsl 100 39 -90 90 0 0 empty empty empty -2 -8 0 10 -262144
-1 -1 4950 0;
#X obj 103 175 hsl 100 39 -90 90 0 0 empty empty empty -2 -8 0 10 -262144
-1 -1 6600 0;
#X obj 131 62 vsl 49 105 90 -90 0 0 empty empty empty 0 -9 0 10 -262144
-1 -1 4911 0;
#X obj 122 23 vsl 71 30 90 -90 0 0 empty empty empty 0 -9 0 10 -262144
-1 -1 1579 0;
#X msg 260 62 set \$1;
#X msg 332 113 set \$1;
#X msg 337 174 set \$1;
#X msg 328 252 set \$1;
#X msg 226 316 set \$1;
#X obj 260 39 r robot2motor5;
#X obj 332 90 r robot2motor4;
#X obj 337 151 r robot2motor3;
#X obj 237 119 s robot2set5;
#X obj 236 167 s robot2set4;
#X obj 328 229 r robot2motor1;
#X obj 233 229 s robot2set3;
#X obj 226 293 r robot2motor0;
#X obj 256 496 s robot2set1;
#X obj 336 498 s robot2set2;
#X obj 107 483 s robot2set0;
#X connect 0 0 21 0;
#X connect 1 0 22 0;
#X connect 2 0 0 0;
#X connect 2 1 1 0;
#X connect 3 0 2 0;
#X connect 4 0 23 0;
#X connect 5 0 19 0;
#X connect 6 0 17 0;
#X connect 7 0 16 0;
#X connect 8 0 7 0;
#X connect 9 0 6 0;
#X connect 10 0 5 0;
#X connect 11 0 3 0;
#X connect 12 0 4 0;
#X connect 13 0 8 0;
#X connect 14 0 9 0;
#X connect 15 0 10 0;
#X connect 18 0 11 0;
#X connect 20 0 12 0;
#X coords 0 -1 1 1 112 352 1 100 21;
#X restore 695 4 pd robot 1;
#N canvas 119 47 1320 550 emergency 0;
#X obj 101 130 cnv 15 124 28 empty empty (\ ù) 20 12 0 14 -233017
-66577 0;
#X obj 101 101 cnv 15 124 28 empty empty SOLO 11 12 0 14 -233017 -66577
0;
#X obj 19 220 t b b b b b b;
#X obj 167 105 bng 51 250 50 0 empty empty empty 17 7 0 10 -258510
-1 -1;
#X msg 48 387 90;
#X msg 34 432 -80;
#X msg 19 474 0;
#X msg 94 244 1;
#X msg 79 286 1;
#X msg 63 339 1;
#X obj 79 308 s robot1compliant4;
#X obj 63 361 s robot1compliant3;
#X obj 48 409 s robot1set2;
#X obj 35 454 s robot1set1;
#X obj 20 496 s robot1set0;
#X obj 299 523 s robot1led;
#X obj 299 545 s robot2led;
#X msg 299 483 1;
#X msg 355 348 0;
#X obj 279 171 t b b;
#X obj 335 174 delay 2000;
#X obj 355 380 s robot2compliant;
#X obj 355 402 s robot1compliant;
#X obj 138 9 keyup;
#X msg 509 365 0;
#X obj 636 183 delay 500;
#X obj 746 183 delay 2000;
#X obj 820 404 s robot1led;
#X obj 820 426 s robot2led;
#X msg 819 367 4;
#X obj -304 235 s random-score-start;
#X floatatom 205 48 5 0 0 0 - - -, f 5;
#X obj 524 405 s loadPos1;
#X obj 524 437 s loadPos2;
#X obj 337 446 s robot2compliant5;
#X msg 337 424 1;
#X obj 93 265 s robot1compliant5;
#X obj 336 313 t b b b;
#X obj 919 183 delay 2000;
#X obj 984 389 s random-score-start;
#X obj 626 340 t b b b b b b;
#X msg 619 463 90;
#X msg 584 487 -80;
#X msg 574 528 0;
#X msg 680 406 1;
#X msg 650 429 1;
#X obj 575 550 s robot2set0;
#X obj 585 509 s robot2set1;
#X obj 619 485 s robot2set2;
#X obj 650 451 s robot2compliant3;
#X obj 680 428 s robot2compliant4;
#X obj 701 386 s robot2compliant5;
#X msg 701 364 1;
#X obj -303 170 t b b;
#X obj -116 171 t b b;
#X obj 9 170 t b b;
#X msg -292 291 3;
#X msg 936 388 1;
#X obj -293 325 s foreground;
#X obj 936 426 s foreground;
#X msg -304 206 0 1 0;
#X msg 984 360 1 1 0;
#X obj 140 52 sel 249;
#X connect 2 0 6 0;
#X connect 2 1 5 0;
#X connect 2 2 4 0;
#X connect 2 3 9 0;
#X connect 2 4 8 0;
#X connect 2 5 7 0;
#X connect 3 0 53 0;
#X connect 4 0 12 0;
#X connect 5 0 13 0;
#X connect 6 0 14 0;
#X connect 7 0 36 0;
#X connect 8 0 10 0;
#X connect 9 0 11 0;
#X connect 17 0 15 0;
#X connect 17 0 16 0;
#X connect 18 0 21 0;
#X connect 18 0 22 0;
#X connect 19 0 20 0;
#X connect 19 1 17 0;
#X connect 20 0 25 0;
#X connect 20 0 37 0;
#X connect 23 0 31 0;
#X connect 23 0 62 0;
#X connect 24 0 32 0;
#X connect 24 0 33 0;
#X connect 25 0 24 0;
#X connect 25 0 26 0;
#X connect 26 0 29 0;
#X connect 26 0 38 0;
#X connect 26 0 40 0;
#X connect 26 0 57 0;
#X connect 29 0 27 0;
#X connect 29 0 28 0;
#X connect 35 0 34 0;
#X connect 37 0 35 0;
#X connect 37 1 18 0;
#X connect 38 0 61 0;
#X connect 40 0 43 0;
#X connect 40 1 42 0;
#X connect 40 2 41 0;
#X connect 40 3 45 0;
#X connect 40 4 44 0;
#X connect 40 5 52 0;
#X connect 41 0 48 0;
#X connect 42 0 47 0;
#X connect 43 0 46 0;
#X connect 44 0 50 0;
#X connect 45 0 49 0;
#X connect 52 0 51 0;
#X connect 53 0 54 0;
#X connect 53 1 60 0;
#X connect 53 1 56 0;
#X connect 54 0 55 0;
#X connect 55 0 19 0;
#X connect 55 1 2 0;
#X connect 56 0 58 0;
#X connect 57 0 59 0;
#X connect 60 0 30 0;
#X connect 61 0 39 0;
#X connect 62 0 3 0;
#X coords 0 -1 1 1 127 60 2 100 100;
#X restore 357 439 pd emergency;
#N canvas 753 223 580 440 random-score 0;
#X obj 141 222 random 8;
#X obj 114 147 bng 15 250 50 0 empty empty empty 17 7 0 10 -262144
-1 -1;
#X obj 112 104 tgl 15 0 empty empty start 17 7 0 10 -262144 -1 -1 0
1;
#X obj 232 194 metro 2000;
#X obj 102 18 r random-score-start;
#X obj 182 147 nbx 2 14 -1e+37 1e+37 0 1 empty empty nbPos 0 -8 0 11
-262144 -1 -1 16 256 0;
#X floatatom 137 147 5 0 0 0 - - -, f 5;
#X obj 28 298 outlet;
#X obj 225 147 nbx 5 14 -1e+37 1e+37 0 1 empty empty metro 0 -8 0 11
-262144 -1 -1 4000 256 0;
#X obj 250 391 i 0;
#X obj 310 393 i 0;
#X obj 116 367 delay 500;
#X obj 183 368 delay 200;
#X obj 236 446 s loadPos1;
#X obj 310 445 s loadPos2;
#X obj 350 269 snapshot~;
#X floatatom 350 322 10 0 0 0 - - -, f 10;
#X obj 350 296 abs;
#X obj 350 345 * 1000;
#X obj 212 248 t b f f b;
#X obj 423 269 snapshot~;
#X floatatom 423 322 10 0 0 0 - - -, f 10;
#X obj 423 296 abs;
#X obj 423 345 * 1000;
#X obj 350 244 osc~ 2.3;
#X floatatom 286 104 5 0 0 0 delay1 - -, f 5;
#X floatatom 362 104 5 0 0 0 delay2 - -, f 5;
#X obj 423 244 osc~ 1.9;
#X obj 243 421 spigot 1;
#X obj 312 420 spigot 1;
#X obj 345 147 tgl 15 0 empty empty active 17 7 0 10 -262144 -1 -1
1 1;
#X obj 287 147 tgl 15 0 empty empty active 17 7 0 10 -262144 -1 -1
1 1;
#X obj 164 104 hradio 15 0 0 5 empty empty empty 0 -8 0 10 -262144
-1 -1 3;
#X obj 257 30 + 1;
#X obj 257 50 * 1000;
#X obj 98 49 unpack f f f;
#X connect 0 0 6 0;
#X connect 0 0 7 0;
#X connect 0 0 19 0;
#X connect 1 0 0 0;
#X connect 2 0 3 0;
#X connect 3 0 1 0;
#X connect 4 0 35 0;
#X connect 5 0 0 1;
#X connect 8 0 3 1;
#X connect 8 0 18 1;
#X connect 8 0 23 1;
#X connect 9 0 28 0;
#X connect 10 0 29 0;
#X connect 11 0 9 0;
#X connect 12 0 10 0;
#X connect 15 0 17 0;
#X connect 16 0 18 0;
#X connect 17 0 16 0;
#X connect 18 0 11 1;
#X connect 18 0 25 0;
#X connect 19 0 11 0;
#X connect 19 0 12 0;
#X connect 19 1 9 0;
#X connect 19 2 10 1;
#X connect 19 3 15 0;
#X connect 19 3 20 0;
#X connect 20 0 22 0;
#X connect 21 0 23 0;
#X connect 22 0 21 0;
#X connect 23 0 12 1;
#X connect 23 0 26 0;
#X connect 24 0 15 0;
#X connect 27 0 20 0;
#X connect 28 0 13 0;
#X connect 29 0 14 0;
#X connect 30 0 29 1;
#X connect 31 0 28 1;
#X connect 32 0 33 0;
#X connect 33 0 34 0;
#X connect 34 0 8 0;
#X connect 35 0 2 0;
#X connect 35 1 31 0;
#X connect 35 2 30 0;
#X coords 0 -1 1 1 300 69 2 100 100;
#X restore 13 178 pd random-score;
#N canvas 510 269 701 371 video 0;
#X obj 108 291 mrpeach/packOSC;
#X obj 108 315 mrpeach/udpsend;
#X msg -43 295 connect 127.0.0.1 12342;
#X obj 109 265 prepend /activate;
#X obj 108 341 tgl 15 0 empty empty empty 17 7 0 10 -262144 -1 -1 1
1;
#X msg -13 271 disconnect;
#X obj 106 106 tgl 27 0 empty empty video\ connect 39 4 0 10 -262144
-1 -1 1 1;
#X obj 29 228 sel 1 0;
#X obj 106 42 loadbang;
#X msg 106 69 1;
#N canvas 495 22 945 309 backgound 0;
#X obj 150 249 outlet;
#X obj 152 34 inlet;
#X msg 150 218 /background \$1 \$2 \$3;
#X obj 39 141 pack 0 0 0;
#X obj 152 60 sel 0 1 2 3 4 5 6 7;
#X obj 760 140 pack 240 215 220;
#X obj 114 141 pack 30 30 30;
#X obj 221 140 pack 60 60 60;
#X obj 325 140 pack 90 90 90;
#X obj 435 141 pack 120 120 120;
#X obj 549 141 pack 160 160 160;
#X obj 656 140 pack 200 200 200;
#X connect 1 0 4 0;
#X connect 2 0 0 0;
#X connect 3 0 2 0;
#X connect 4 0 3 0;
#X connect 4 1 6 0;
#X connect 4 2 7 0;
#X connect 4 3 8 0;
#X connect 4 4 9 0;
#X connect 4 5 10 0;
#X connect 4 6 11 0;
#X connect 4 7 5 0;
#X connect 5 0 2 0;
#X connect 6 0 2 0;
#X connect 7 0 2 0;
#X connect 8 0 2 0;
#X connect 9 0 2 0;
#X connect 10 0 2 0;
#X connect 11 0 2 0;
#X restore 322 232 pd backgound;
#X obj 271 115 hradio 15 0 0 8 empty empty background 0 -8 0 10 -262144
-1 -1 0;
#N canvas 195 84 450 323 foreground 0;
#X obj 150 249 outlet;
#X obj 152 34 inlet;
#X msg 150 218 /foreground \$1 \$2 \$3;
#X obj 140 137 pack 10 10 10;
#X obj 225 137 pack 80 80 80;
#X obj 44 137 pack 80 10 10;
#X obj 152 60 sel 0 1 2 3 4 5 6 7;
#X obj 311 137 pack 255 255 255;
#X connect 1 0 6 0;
#X connect 2 0 0 0;
#X connect 3 0 2 0;
#X connect 4 0 2 0;
#X connect 5 0 2 0;
#X connect 6 0 5 0;
#X connect 6 1 3 0;
#X connect 6 2 4 0;
#X connect 6 3 7 0;
#X connect 7 0 2 0;
#X restore 418 235 pd foreground;
#X obj 279 146 hradio 15 0 0 4 empty empty foreground 0 -8 0 10 -262144
-1 -1 1;
#N canvas 495 22 610 296 connect 0;
#X obj 211 195 outlet;
#X msg 489 113 3 \$1;
#X msg 526 113 4 \$1;
#X msg 454 113 2 \$1;
#X obj 456 92 tgl 15 0 empty empty empty 17 7 0 10 -262144 -1 -1 0
1;
#X obj 488 92 tgl 15 0 empty empty empty 17 7 0 10 -262144 -1 -1 0
1;
#X obj 526 92 tgl 15 0 empty empty empty 17 7 0 10 -262144 -1 -1 0
1;
#X msg 193 130 \$1 1;
#X msg 259 134 \$1 0;
#X obj 232 16 t b b;
#X obj 355 196 outlet;
#X obj 299 195 outlet;
#X obj 230 -6 inlet;
#X obj 334 -3 inlet;
#X obj 430 -2 inlet;
#X obj 193 62 random 5;
#X obj 259 64 random 5;
#X connect 4 0 3 0;
#X connect 5 0 1 0;
#X connect 6 0 2 0;
#X connect 7 0 0 0;
#X connect 8 0 0 0;
#X connect 9 0 15 0;
#X connect 9 1 16 0;
#X connect 12 0 9 0;
#X connect 13 0 7 0;
#X connect 14 0 8 0;
#X connect 15 0 7 0;
#X connect 15 0 11 0;
#X connect 16 0 8 0;
#X connect 16 0 10 0;
#X restore 118 178 pd connect;
#X floatatom 104 145 5 0 0 0 - - -, f 5;
#X floatatom 143 145 5 0 0 0 - - -, f 5;
#X obj 208 16 r loadPos1;
#X obj 208 48 bang;
#X obj 184 118 hradio 15 0 0 5 empty empty empty 0 -8 0 10 -262144
-1 -1 0;
#X obj 181 148 hradio 15 0 0 5 empty empty empty 0 -8 0 10 -262144
-1 -1 1;
#X obj 144 118 bng 15 250 50 0 empty empty empty 17 7 0 10 -262144
-1 -1;
#X obj 419 43 r foreground;
#X obj 301 40 r background;
#X obj 364 150 hradio 15 0 0 2 empty empty text 0 -8 0 10 -262144 -1
-1 1;
#N canvas 195 84 450 323 text 0;
#X obj 150 249 outlet;
#X obj 152 34 inlet;
#X obj 152 60 sel 0 1;
#X obj 44 137 pack 220 220 200;
#X obj 158 134 pack 0 0 0;
#X msg 150 218 /text \$1 \$2 \$3;
#X connect 1 0 2 0;
#X connect 2 0 3 0;
#X connect 2 1 4 0;
#X connect 3 0 5 0;
#X connect 4 0 5 0;
#X connect 5 0 0 0;
#X restore 543 232 pd text;
#X connect 0 0 1 0;
#X connect 1 0 4 0;
#X connect 2 0 1 0;
#X connect 3 0 0 0;
#X connect 5 0 1 0;
#X connect 6 0 7 0;
#X connect 7 0 2 0;
#X connect 7 1 5 0;
#X connect 8 0 9 0;
#X connect 9 0 6 0;
#X connect 10 0 0 0;
#X connect 11 0 10 0;
#X connect 12 0 0 0;
#X connect 13 0 12 0;
#X connect 14 0 3 0;
#X connect 14 1 15 0;
#X connect 14 2 16 0;
#X connect 17 0 18 0;
#X connect 17 0 21 0;
#X connect 18 0 14 0;
#X connect 19 0 14 1;
#X connect 20 0 14 2;
#X connect 22 0 13 0;
#X connect 23 0 11 0;
#X connect 24 0 25 0;
#X connect 25 0 0 0;
#X coords 0 -1 1 1 316 73 1 100 100;
#X restore 13 364 pd video;
#N canvas 46 68 971 356 emergency 0;
#X obj 101 130 cnv 15 124 28 empty empty (\ $) 20 12 0 14 -233017 -66577
0;
#X obj 101 101 cnv 15 124 28 empty empty STOP 20 12 0 14 -233017 -66577
0;
#X obj 167 105 bng 51 250 50 0 empty empty empty 17 7 0 10 -258510
-1 -1;
#X obj 138 9 keyup;
#X msg 307 215 0;
#X obj 306 170 delay 500;
#X obj 414 170 delay 2000;
#X obj 554 274 s robot1led;
#X obj 554 296 s robot2led;
#X msg 553 237 4;
#X msg -134 236 0;
#X obj -134 265 s random-score-start;
#X floatatom 205 48 5 0 0 0 - - -, f 5;
#X obj 307 255 s loadPos1;
#X obj 307 287 s loadPos2;
#X obj -133 170 t b b;
#X obj 140 52 sel 36;
#X obj 34 256 s robot2compliant;
#X obj 34 278 s robot1compliant;
#X obj 15 170 t b b b;
#X msg 34 224 1;
#X obj 433 285 s robot2compliant;
#X obj 433 307 s robot1compliant;
#X obj 414 218 t b b b;
#X msg 433 253 0;
#X connect 2 0 15 0;
#X connect 3 0 12 0;
#X connect 3 0 16 0;
#X connect 4 0 13 0;
#X connect 4 0 14 0;
#X connect 5 0 4 0;
#X connect 5 0 6 0;
#X connect 6 0 9 0;
#X connect 6 0 23 0;
#X connect 9 0 7 0;
#X connect 9 0 8 0;
#X connect 10 0 11 0;
#X connect 15 0 19 0;
#X connect 15 1 10 0;
#X connect 16 0 2 0;
#X connect 19 0 5 0;
#X connect 19 1 20 0;
#X connect 20 0 17 0;
#X connect 20 0 18 0;
#X connect 23 1 24 0;
#X connect 24 0 21 0;
#X connect 24 0 22 0;
#X coords 0 -1 1 1 127 60 2 100 100;
#X restore 222 439 pd emergency;
#N canvas 80 67 1328 564 emergency 0;
#X obj 101 130 cnv 15 124 28 empty empty (\ -) 20 12 0 14 -233017 -66577
0;
#X obj 101 101 cnv 15 124 28 empty empty DUO 20 12 0 14 -233017 -66577
0;
#X obj 19 220 t b b b b b b;
#X obj 167 105 bng 51 250 50 0 empty empty empty 17 7 0 10 -258510
-1 -1;
#X msg 48 387 90;
#X msg 34 432 -80;
#X msg 19 474 0;
#X msg 94 244 1;
#X msg 79 286 1;
#X msg 63 339 1;
#X obj 79 308 s robot1compliant4;
#X obj 63 361 s robot1compliant3;
#X obj 48 409 s robot1set2;
#X obj 35 454 s robot1set1;
#X obj 20 496 s robot1set0;
#X obj 469 523 s robot1led;
#X obj 469 545 s robot2led;
#X msg 469 483 1;
#X msg 525 348 0;
#X obj 449 171 t b b;
#X obj 505 174 delay 2000;
#X obj 525 380 s robot2compliant;
#X obj 525 402 s robot1compliant;
#X obj 138 9 keyup;
#X msg 679 365 0;
#X obj 806 183 delay 500;
#X obj 916 183 delay 2000;
#X obj 990 404 s robot1led;
#X obj 990 426 s robot2led;
#X msg 989 367 4;
#X obj -304 235 s random-score-start;
#X floatatom 205 48 5 0 0 0 - - -, f 5;
#X obj 507 446 s robot2compliant5;
#X msg 507 424 1;
#X obj -144 379 readsf~;
#X floatatom -114 257 5 0 0 0 - - -, f 5;
#X obj -115 208 bng 15 250 50 0 empty empty empty 17 7 0 10 -262144
-1 -1;
#X msg -144 355 open \$1;
#X obj -144 403 *~ 0.9;
#X obj -144 430 dac~;
#X obj -224 278 makefilename sounds/sound_ergo-%d.wav;
#X obj -201 321 t b a;
#X msg -193 355 start;
#X obj 93 265 s robot1compliant5;
#X obj 506 313 t b b b;
#X obj 1089 183 delay 2000;
#X obj 1154 389 s random-score-start;
#X obj -303 170 t b b;
#X obj -116 171 t b b;
#X msg -292 291 3;
#X msg 1106 388 1;
#X obj -293 325 s foreground;
#X obj 1106 426 s foreground;
#X obj 140 52 sel 45;
#X obj 9 170 t b b b;
#X obj 224 222 t b b b b b b;
#X msg 254 387 90;
#X msg 239 429 -80;
#X msg 224 469 0;
#X msg 284 288 1;
#X msg 269 338 1;
#X obj 225 491 s robot2set0;
#X obj 240 451 s robot2set1;
#X obj 254 409 s robot2set2;
#X obj 270 365 s robot2compliant3;
#X obj 284 310 s robot2compliant4;
#X obj 299 268 s robot2compliant5;
#X msg 299 246 1;
#X obj 742 413 s loadPos1;
#X obj 685 447 s loadPos2;
#X msg 1154 360 1 1 1;
#X msg -304 206 0 1 1;
#X obj -114 235 random 14;
#X connect 2 0 6 0;
#X connect 2 1 5 0;
#X connect 2 2 4 0;
#X connect 2 3 9 0;
#X connect 2 4 8 0;
#X connect 2 5 7 0;
#X connect 3 0 47 0;
#X connect 4 0 12 0;
#X connect 5 0 13 0;
#X connect 6 0 14 0;
#X connect 7 0 43 0;
#X connect 8 0 10 0;
#X connect 9 0 11 0;
#X connect 17 0 15 0;
#X connect 17 0 16 0;
#X connect 18 0 21 0;
#X connect 18 0 22 0;
#X connect 19 0 20 0;
#X connect 19 1 17 0;
#X connect 20 0 25 0;
#X connect 20 0 44 0;
#X connect 23 0 31 0;
#X connect 23 0 53 0;
#X connect 24 0 68 0;
#X connect 24 0 69 0;
#X connect 25 0 24 0;
#X connect 25 0 26 0;
#X connect 26 0 29 0;
#X connect 26 0 45 0;
#X connect 26 0 50 0;
#X connect 29 0 27 0;
#X connect 29 0 28 0;
#X connect 33 0 32 0;
#X connect 34 0 38 0;
#X connect 35 0 40 0;
#X connect 36 0 72 0;
#X connect 37 0 34 0;
#X connect 38 0 39 1;
#X connect 38 0 39 0;
#X connect 40 0 41 0;
#X connect 41 0 42 0;
#X connect 41 1 37 0;
#X connect 42 0 34 0;
#X connect 44 0 33 0;
#X connect 44 1 18 0;
#X connect 45 0 70 0;
#X connect 47 0 48 0;
#X connect 47 1 71 0;
#X connect 47 1 49 0;
#X connect 48 0 54 0;
#X connect 48 1 36 0;
#X connect 49 0 51 0;
#X connect 50 0 52 0;
#X connect 53 0 3 0;
#X connect 54 0 19 0;
#X connect 54 1 2 0;
#X connect 54 2 55 0;
#X connect 55 0 58 0;
#X connect 55 1 57 0;
#X connect 55 2 56 0;
#X connect 55 3 60 0;
#X connect 55 4 59 0;
#X connect 55 5 67 0;
#X connect 56 0 63 0;
#X connect 57 0 62 0;
#X connect 58 0 61 0;
#X connect 59 0 65 0;
#X connect 60 0 64 0;
#X connect 67 0 66 0;
#X connect 70 0 46 0;
#X connect 71 0 30 0;
#X connect 72 0 35 0;
#X coords 0 -1 1 1 127 60 2 100 100;
#X restore 639 439 pd emergency;
#N canvas 119 47 1320 550 emergency 0;
#X obj 101 130 cnv 15 124 28 empty empty (\ `) 20 12 0 14 -233017 -66577
0;
#X obj 101 101 cnv 15 124 28 empty empty SOLO 20 12 0 14 -233017 -66577
0;
#X obj 19 220 t b b b b b b;
#X obj 167 105 bng 51 250 50 0 empty empty empty 17 7 0 10 -258510
-1 -1;
#X msg 48 387 90;
#X msg 34 432 -80;
#X msg 19 474 0;
#X msg 94 244 1;
#X msg 79 286 1;
#X msg 63 339 1;
#X obj 79 308 s robot1compliant4;
#X obj 63 361 s robot1compliant3;
#X obj 48 409 s robot1set2;
#X obj 35 454 s robot1set1;
#X obj 20 496 s robot1set0;
#X obj 299 523 s robot1led;
#X obj 299 545 s robot2led;
#X msg 299 483 1;
#X msg 355 348 0;
#X obj 279 171 t b b;
#X obj 335 174 delay 2000;
#X obj 355 380 s robot2compliant;
#X obj 355 402 s robot1compliant;
#X obj 138 9 keyup;
#X obj 140 52 sel 163;
#X msg 509 365 0;
#X obj 636 183 delay 500;
#X obj 746 183 delay 2000;
#X obj 820 404 s robot1led;
#X obj 820 426 s robot2led;
#X msg 819 367 4;
#X obj -304 235 s random-score-start;
#X floatatom 205 48 5 0 0 0 - - -, f 5;
#X obj 524 405 s loadPos1;
#X obj 524 437 s loadPos2;
#X obj 337 446 s robot2compliant5;
#X msg 337 424 1;
#X obj -144 379 readsf~;
#X obj -115 198 bng 15 250 50 0 empty empty empty 17 7 0 10 -262144
-1 -1;
#X msg -144 355 open \$1;
#X obj -144 403 *~ 0.9;
#X obj -144 430 dac~;
#X obj -224 278 makefilename sounds/sound_ergo-%d.wav;
#X obj -201 321 t b a;
#X msg -193 355 start;
#X obj 93 265 s robot1compliant5;
#X obj 336 313 t b b b;
#X obj 919 183 delay 2000;
#X obj 984 389 s random-score-start;
#X obj 626 340 t b b b b b b;
#X msg 619 463 90;
#X msg 584 487 -80;
#X msg 574 528 0;
#X msg 680 406 1;
#X msg 650 429 1;
#X obj 575 550 s robot2set0;
#X obj 585 509 s robot2set1;
#X obj 619 485 s robot2set2;
#X obj 650 451 s robot2compliant3;
#X obj 680 428 s robot2compliant4;
#X obj 701 386 s robot2compliant5;
#X msg 701 364 1;
#X obj -303 170 t b b;
#X obj -116 171 t b b;
#X obj 9 170 t b b;
#X msg -292 291 3;
#X msg 936 388 1;
#X obj -293 325 s foreground;
#X obj 936 426 s foreground;
#X msg -304 206 0 1 0;
#X msg 984 360 1 1 0;
#X obj -119 249 + 1;
#X floatatom -87 249 5 0 0 0 - - -, f 5;
#X obj -115 217 random 7;
#X connect 2 0 6 0;
#X connect 2 1 5 0;
#X connect 2 2 4 0;
#X connect 2 3 9 0;
#X connect 2 4 8 0;
#X connect 2 5 7 0;
#X connect 3 0 62 0;
#X connect 4 0 12 0;
#X connect 5 0 13 0;
#X connect 6 0 14 0;
#X connect 7 0 45 0;
#X connect 8 0 10 0;
#X connect 9 0 11 0;
#X connect 17 0 15 0;
#X connect 17 0 16 0;
#X connect 18 0 21 0;
#X connect 18 0 22 0;
#X connect 19 0 20 0;
#X connect 19 1 17 0;
#X connect 20 0 26 0;
#X connect 20 0 46 0;
#X connect 23 0 24 0;
#X connect 23 0 32 0;
#X connect 24 0 3 0;
#X connect 25 0 33 0;
#X connect 25 0 34 0;
#X connect 26 0 25 0;
#X connect 26 0 27 0;
#X connect 27 0 30 0;
#X connect 27 0 47 0;
#X connect 27 0 49 0;
#X connect 27 0 66 0;
#X connect 30 0 28 0;
#X connect 30 0 29 0;
#X connect 36 0 35 0;
#X connect 37 0 40 0;
#X connect 38 0 73 0;
#X connect 39 0 37 0;
#X connect 40 0 41 1;
#X connect 40 0 41 0;
#X connect 42 0 43 0;
#X connect 43 0 44 0;
#X connect 43 1 39 0;
#X connect 44 0 37 0;
#X connect 46 0 36 0;
#X connect 46 1 18 0;
#X connect 47 0 70 0;
#X connect 49 0 52 0;
#X connect 49 1 51 0;
#X connect 49 2 50 0;
#X connect 49 3 54 0;
#X connect 49 4 53 0;
#X connect 49 5 61 0;
#X connect 50 0 57 0;
#X connect 51 0 56 0;
#X connect 52 0 55 0;
#X connect 53 0 59 0;
#X connect 54 0 58 0;
#X connect 61 0 60 0;
#X connect 62 0 63 0;
#X connect 62 1 69 0;
#X connect 62 1 65 0;
#X connect 63 0 64 0;
#X connect 63 1 38 0;
#X connect 64 0 19 0;
#X connect 64 1 2 0;
#X connect 65 0 67 0;
#X connect 66 0 68 0;
#X connect 69 0 31 0;
#X connect 70 0 48 0;
#X connect 71 0 42 0;
#X connect 71 0 72 0;
#X connect 73 0 71 0;
#X coords 0 -1 1 1 127 60 2 100 100;
#X restore 501 439 pd emergency;
#X text 375 504 SANS LE SON;
#X text 522 504 AVEC LE SON;
