#N canvas 138 163 746 470 10;
#X obj 22 52 mrpeach/unpackOSC;
#X obj 22 124 s fromOSC;
#X obj 22 19 mrpeach/udpreceive 9999;
#X obj 352 202 r toOSC;
#X obj 353 305 mrpeach/packOSC;
#X obj 353 345 mrpeach/udpsend;
#X obj 567 218 loadbang;
#X obj 353 378 outlet;
#X obj 505 217 sel 1 0;
#X msg 574 246 disconnect;
#X obj 352 250 list prepend send;
#X msg 352 277 \$1 \$2 \$3;
#X obj 32 94 print fromMrPeach;
#X msg 22 -4 port 9999;
#X obj 507 187 tgl 15 0 empty empty empty 17 7 0 10 -262144 -1 -1 1
1;
#X obj 347 -7 hsl 128 15 -90 90 0 0 empty empty empty -2 -8 0 10 -262144
-1 -1 5450 1;
#X obj 345 110 s toOSC;
#X obj 291 337 print;
#X obj 347 28 i 0;
#X obj 349 63 prepend /motor/1;
#X msg 542 289 connect 192.169.2.6 12344;
#X msg 220 259 send /test 1 2 3;
#X connect 0 0 1 0;
#X connect 0 0 12 0;
#X connect 2 0 0 0;
#X connect 3 0 10 0;
#X connect 4 0 5 0;
#X connect 5 0 7 0;
#X connect 6 0 20 0;
#X connect 8 0 20 0;
#X connect 8 1 9 0;
#X connect 9 0 5 0;
#X connect 10 0 11 0;
#X connect 11 0 4 0;
#X connect 11 0 17 0;
#X connect 13 0 2 0;
#X connect 14 0 8 0;
#X connect 15 0 18 0;
#X connect 18 0 19 0;
#X connect 19 0 16 0;
#X connect 20 0 5 0;
#X connect 21 0 4 0;
