#N canvas 469 78 979 474 10;
#N canvas 628 134 873 620 osc 1;
#X obj 110 179 mrpeach/packOSC;
#X obj 110 219 mrpeach/udpsend;
#X obj 324 92 loadbang;
#X obj 262 91 sel 1 0;
#X msg 331 120 disconnect;
#X obj 109 124 list prepend send;
#X msg 109 151 \$1 \$2 \$3;
#X obj 236 9 tgl 27 0 empty empty adress1 41 9 0 10 -262144 -1 -1 1
1;
#X obj 516 90 loadbang;
#X obj 454 89 sel 1 0;
#X msg 523 118 disconnect;
#X obj 335 9 tgl 27 0 empty empty adress2 42 8 0 10 -262144 -1 -1 0
1;
#X obj -58 121 mrpeach/unpackOSC;
#X obj -58 193 s fromOSC;
#X obj -48 163 print fromMrPeach;
#X obj 248 55 tgl 15 0 empty empty isConnected 17 7 0 10 -204788 -1
-1 1 1;
#X msg 299 163 connect 192.168.0.20 12344;
#X msg 491 161 connect 192.168.0.21 12344;
#X obj 517 224 mrpeach/udpsend;
#X obj 368 55 tgl 15 0 empty empty isConnected 17 7 0 10 -204788 -1
-1 0 1;
#X obj 672 179 mrpeach/packOSC;
#X obj 671 124 list prepend send;
#X msg 671 151 \$1 \$2 \$3;
#X obj 671 76 r toOSC2;
#X obj 109 76 r toOSC1;
#X obj 731 78 r toOSC;
#X obj 168 75 r toOSC;
#X obj -58 88 mrpeach/udpreceive 12345;
#X obj -8 311 mrpeach/unpackOSC;
#X obj -8 373 unpack 1 2 3 4 5 6;
#X obj -8 351 route /robot/entirePos /truc;
#X obj -11 492 s robot1pos0;
#X obj 12 471 s robot1pos1;
#X obj 34 451 s robot1pos2;
#X obj 55 432 s robot1pos3;
#X obj 76 413 s robot1pos4;
#X obj 97 394 s robot1pos5;
#X obj 794 34 mrpeach/unpackOSC;
#X obj 794 106 s fromOSC;
#X obj 804 76 print fromMrPeach;
#X obj 844 224 mrpeach/unpackOSC;
#X obj 844 286 unpack 1 2 3 4 5 6;
#X obj 844 264 route /robot/entirePos /truc;
#X obj 794 1 mrpeach/udpreceive 12346;
#X obj 949 307 s robot2pos5;
#X obj 928 326 s robot2pos4;
#X obj 907 345 s robot2pos3;
#X obj 886 364 s robot2pos2;
#X obj 864 384 s robot2pos1;
#X obj 841 405 s robot2pos0;
#X connect 0 0 1 0;
#X connect 1 0 15 0;
#X connect 2 0 16 0;
#X connect 3 0 16 0;
#X connect 3 1 4 0;
#X connect 4 0 1 0;
#X connect 5 0 6 0;
#X connect 6 0 0 0;
#X connect 7 0 3 0;
#X connect 8 0 17 0;
#X connect 9 0 17 0;
#X connect 9 1 10 0;
#X connect 10 0 18 0;
#X connect 11 0 9 0;
#X connect 12 0 13 0;
#X connect 12 0 28 0;
#X connect 16 0 1 0;
#X connect 17 0 18 0;
#X connect 18 0 19 0;
#X connect 20 0 18 0;
#X connect 21 0 22 0;
#X connect 22 0 20 0;
#X connect 23 0 21 0;
#X connect 24 0 5 0;
#X connect 25 0 21 0;
#X connect 26 0 5 0;
#X connect 27 0 12 0;
#X connect 27 0 14 0;
#X connect 28 0 30 0;
#X connect 29 0 31 0;
#X connect 29 1 32 0;
#X connect 29 2 33 0;
#X connect 29 3 34 0;
#X connect 29 4 35 0;
#X connect 29 5 36 0;
#X connect 30 0 29 0;
#X connect 37 0 38 0;
#X connect 37 0 39 0;
#X connect 37 0 40 0;
#X connect 40 0 42 0;
#X connect 41 0 49 0;
#X connect 41 1 48 0;
#X connect 41 2 47 0;
#X connect 41 3 46 0;
#X connect 41 4 45 0;
#X connect 41 5 44 0;
#X connect 42 0 41 0;
#X connect 43 0 37 0;
#X coords 0 -1 1 1 300 81 2 220 -1;
#X restore 13 9 pd osc;
#N canvas 102 83 671 311 recLoad 0;
#X obj 108 114 hradio 12 0 0 16 empty empty record 0 -8 0 10 -262144
-1 -1 0;
#X msg 3 186 /pos/record \$1;
#X obj 109 138 hradio 12 0 0 16 empty empty load 0 -8 0 10 -262144
-1 -1 0;
#X msg 108 256 /pos/load \$1;
#X obj 27 155 i 0;
#X obj 344 106 bng 23 250 50 0 empty empty empty 17 7 0 10 -259610
-1 -1;
#X obj 108 206 i 0;
#X obj 344 133 bng 23 250 50 0 empty empty empty 17 7 0 10 -40914 -1
-1;
#X obj 167 228 + 1;
#X floatatom 305 137 5 0 0 0 - - -, f 5;
#X floatatom 305 110 5 0 0 0 - - -, f 5;
#X obj 64 160 + 1;
#X obj 109 288 s toOSC1;
#X obj -1 222 s toOSC1;
#X obj 73 53 r loadPos;
#X connect 0 0 4 1;
#X connect 0 0 10 0;
#X connect 1 0 13 0;
#X connect 2 0 6 1;
#X connect 2 0 9 0;
#X connect 3 0 12 0;
#X connect 4 0 1 0;
#X connect 4 0 11 0;
#X connect 5 0 4 0;
#X connect 6 0 3 0;
#X connect 6 0 8 0;
#X connect 7 0 6 0;
#X connect 8 0 2 0;
#X connect 9 0 10 0;
#X connect 11 0 0 0;
#X connect 14 0 2 0;
#X coords 0 -1 1 1 277 65 2 100 100;
#X restore 336 371 pd recLoad;
#N canvas 389 375 450 300 app-settings 0;
#X obj 109 113 hsl 128 15 0.001 1 0 0 empty empty fps -2 -8 0 10 -262144
-1 -1 0 0;
#X msg 110 217 /app/fps \$1;
#X floatatom 248 111 5 0 0 0 - - -, f 5;
#X obj 219 191 pow -1;
#X floatatom 287 111 5 0 0 0 - - -, f 5;
#X obj 111 134 bng 31 250 50 0 empty empty QUIT 41 14 0 10 -164496
-1 -1;
#X msg 12 217 /app/close 1;
#X obj 100 294 s toOSC;
#X connect 0 0 2 0;
#X connect 1 0 7 0;
#X connect 2 0 3 0;
#X connect 2 0 1 0;
#X connect 3 0 4 0;
#X connect 5 0 6 0;
#X connect 6 0 7 0;
#X coords 0 -1 1 1 300 69 2 100 100;
#X restore 13 96 pd app-settings;
#X msg 49 384 /pos/saveLib 1;
#X obj 49 313 bng 36 250 50 0 empty empty SAVE 8 -14 0 10 -16645 -89252
-1;
#N canvas 102 83 671 311 recLoad 0;
#X obj 108 114 hradio 12 0 0 16 empty empty record 0 -8 0 10 -262144
-1 -1 0;
#X msg 3 186 /pos/record \$1;
#X obj 109 138 hradio 12 0 0 16 empty empty load 0 -8 0 10 -262144
-1 -1 0;
#X msg 108 256 /pos/load \$1;
#X obj 27 155 i 0;
#X obj 344 106 bng 23 250 50 0 empty empty empty 17 7 0 10 -259610
-1 -1;
#X obj 108 206 i 0;
#X obj 344 133 bng 23 250 50 0 empty empty empty 17 7 0 10 -40914 -1
-1;
#X obj 167 228 + 1;
#X floatatom 305 137 5 0 0 0 - - -, f 5;
#X floatatom 305 110 5 0 0 0 - - -, f 5;
#X obj 64 160 + 1;
#X obj -1 222 s toOSC2;
#X obj 109 288 s toOSC2;
#X obj 68 32 r loadPos;
#X connect 0 0 4 1;
#X connect 0 0 10 0;
#X connect 1 0 12 0;
#X connect 2 0 6 1;
#X connect 2 0 9 0;
#X connect 3 0 13 0;
#X connect 4 0 1 0;
#X connect 4 0 11 0;
#X connect 5 0 4 0;
#X connect 6 0 3 0;
#X connect 6 0 8 0;
#X connect 7 0 6 0;
#X connect 8 0 2 0;
#X connect 9 0 10 0;
#X connect 11 0 0 0;
#X connect 14 0 2 0;
#X coords 0 -1 1 1 277 65 2 100 100;
#X restore 730 370 pd recLoad;
#X obj 365 2 motor 5 1;
#X obj 365 57 motor 4 1;
#X obj 366 112 motor 3 1;
#X obj 366 168 motor 2 1;
#X obj 366 225 motor 1 1;
#X obj 366 279 motor 0 1;
#X obj 782 5 motor 5 2;
#X obj 782 60 motor 4 2;
#X obj 783 115 motor 3 2;
#X obj 783 171 motor 2 2;
#X obj 783 228 motor 1 2;
#X obj 783 282 motor 0 2;
#N canvas 102 83 671 311 globalLoad 0;
#X obj 109 118 hradio 12 0 0 16 empty empty load 0 -8 0 10 -262144
-1 -1 0;
#X obj 108 206 i 0;
#X obj 344 113 bng 23 250 50 0 empty empty empty 17 7 0 10 -40914 -1
-1;
#X obj 167 228 + 1;
#X floatatom 305 117 5 0 0 0 - - -, f 5;
#X obj 109 288 s loadPos;
#X connect 0 0 1 1;
#X connect 0 0 4 0;
#X connect 1 0 3 0;
#X connect 1 0 5 0;
#X connect 2 0 1 0;
#X connect 3 0 0 0;
#X coords 0 -1 1 1 277 44 2 100 100;
#X restore 15 175 pd globalLoad;
#X obj 168 336 bng 15 250 50 0 empty empty empty 17 7 0 10 -262144
-1 -1;
#X msg 168 387 /robot/getposition 1;
#X obj 168 417 s toOSC1;
#X connect 4 0 3 0;
#X connect 19 0 20 0;
#X connect 20 0 21 0;
