#N canvas 279 216 746 470 10;
#X obj 22 52 mrpeach/unpackOSC;
#X obj 22 124 s fromOSC;
#X obj 22 19 mrpeach/udpreceive 9999;
#X obj 184 18 r toOSC;
#X obj 185 121 mrpeach/packOSC;
#X obj 185 161 mrpeach/udpsend;
#X obj 399 34 loadbang;
#X obj 185 194 outlet;
#X obj 337 33 sel 1 0;
#X msg 406 62 disconnect;
#X obj 184 66 list prepend send;
#X msg 184 93 \$1 \$2 \$3;
#X obj 93 238 print fromMrPeach;
#X msg 22 -4 port 9999;
#X msg 352 84 connect 192.169.2.6 9998;
#X obj 339 3 tgl 15 0 empty empty empty 17 7 0 10 -262144 -1 -1 0 1
;
#X connect 0 0 1 0;
#X connect 0 0 12 0;
#X connect 2 0 0 0;
#X connect 3 0 10 0;
#X connect 4 0 5 0;
#X connect 5 0 7 0;
#X connect 6 0 14 0;
#X connect 8 0 14 0;
#X connect 8 1 9 0;
#X connect 9 0 5 0;
#X connect 10 0 11 0;
#X connect 11 0 4 0;
#X connect 13 0 2 0;
#X connect 14 0 5 0;
#X connect 15 0 8 0;
