#N canvas 600 207 536 409 10;
#X obj 103 113 hsl 128 15 -90 90 0 0 empty empty position to reach
13 -8 0 10 -262144 -1 -1 0 0;
#X obj 103 133 tgl 15 0 empty empty compliant 17 7 0 10 -262144 -1
-1 0 1;
#X msg 221 228 red;
#X msg 248 228 blue;
#X msg 194 228 off;
#X msg 279 228 green;
#X obj 196 134 hradio 15 0 0 5 empty empty empty 0 -8 0 10 -262144
-1 -1 4;
#X floatatom 238 112 5 0 0 0 - - -;
#X obj 89 12 r robot\$2motor\$1;
#X msg 90 43 set \$1;
#X obj 214 12 r robot\$2set\$1;
#X obj 194 197 sel 0 1 2 3 4;
#X msg 320 229 white;
#X obj 309 11 r robot\$2compliant\$1;
#X obj 309 53 r robot\$2led\$1;
#X obj 309 33 r robot\$2compliant;
#X obj 309 73 r robot\$2led;
#X obj -2 188 list prepend /compliant/\$1;
#X obj -15 133 list prepend /motor/\$1;
#X obj 190 258 list prepend /led/\$1;
#X obj 117 338 s toOSC\$2;
#X obj 117 306 list trim;
#X connect 0 0 7 0;
#X connect 1 0 17 0;
#X connect 2 0 19 0;
#X connect 3 0 19 0;
#X connect 4 0 19 0;
#X connect 5 0 19 0;
#X connect 6 0 11 0;
#X connect 7 0 18 0;
#X connect 8 0 9 0;
#X connect 9 0 0 0;
#X connect 9 0 7 0;
#X connect 10 0 0 0;
#X connect 11 0 4 0;
#X connect 11 1 2 0;
#X connect 11 2 3 0;
#X connect 11 3 5 0;
#X connect 11 4 12 0;
#X connect 12 0 19 0;
#X connect 13 0 1 0;
#X connect 14 0 6 0;
#X connect 15 0 1 0;
#X connect 16 0 6 0;
#X connect 17 0 21 0;
#X connect 18 0 21 0;
#X connect 19 0 21 0;
#X connect 21 0 20 0;
#X coords 0 -1 1 1 175 52 2 100 100;
